<?xml version="1.0" standalone="no"?><!DOCTYPE svg PUBLIC "-//W3C//DTD SVG 1.1//EN" "http://www.w3.org/Graphics/SVG/1.1/DTD/svg11.dtd"><svg t="1514255529927" class="icon" style="" viewBox="0 0 1024 1024" version="1.1" xmlns="http://www.w3.org/2000/svg" p-id="3041" xmlns:xlink="http://www.w3.org/1999/xlink" width="64" height="64"><defs><style type="text/css"></style></defs><path d="M296.906 339.527c-3.612 9.392-5.418 19.505-5.418 29.98 0 46.233 37.565 83.798 83.798 83.798s83.798-37.565 83.798-83.798-37.564-83.798-83.798-83.798c-10.475 0-20.588 1.806-29.98 5.418L220.694 166.513c-13.365-13.364-35.037-13.364-48.4 0-13.365 13.364-13.365 35.036 0 48.4l124.613 124.614z" p-id="3042"></path><path d="M932.617 477.867L551.913 97.163c-47.318-47.317-124.253-47.317-171.57 0l-48.762 48.762 0.361 0.36c-5.057 5.78-7.946 13.004-7.946 21.311 0 17.7 14.448 32.147 32.147 32.147 7.946 0 15.531-2.89 21.31-7.946l0.361 0.361 48.401-49.123c22.033-22.033 57.792-22.033 79.464 0l380.704 380.704c22.033 22.033 21.672 57.792 0 79.464l-277.401 277.4c-22.033 22.034-57.792 22.034-79.464 0L148.814 500.262c-22.033-22.033-21.672-57.792 0-79.464l48.762-48.762-0.361-0.36c5.057-5.78 7.946-13.004 7.946-21.312 0-17.698-14.448-32.146-32.147-32.146-7.946 0-15.531 2.89-21.31 7.946l-0.361-0.361-48.762 48.762c-47.318 47.317-47.318 124.252 0 171.57l380.704 380.703c47.317 47.317 124.252 47.317 171.57 0l277.4-277.4c47.679-47.318 47.679-124.253 0.362-171.57z" p-id="3043"></path></svg>