<?xml version="1.0" standalone="no"?><!DOCTYPE svg PUBLIC "-//W3C//DTD SVG 1.1//EN" "http://www.w3.org/Graphics/SVG/1.1/DTD/svg11.dtd"><svg t="1514254519411" class="icon" style="" viewBox="0 0 1218 1024" version="1.1" xmlns="http://www.w3.org/2000/svg" p-id="1552" xmlns:xlink="http://www.w3.org/1999/xlink" width="76.125" height="64"><defs><style type="text/css"></style></defs><path d="M177.750943 539.049057c0 0 28.981132 239.577358 46.369811 374.822642 5.796226 54.098113 52.166038 90.807547 102.4 90.807547l573.826415 0c54.098113 0 96.603774-40.573585 102.4-90.807547 15.456604-137.177358 42.50566-374.822642 42.50566-374.822642L604.739623 197.071698 177.750943 539.049057 177.750943 539.049057zM618.264151 502.339623l0 135.245283 115.924528 0c11.592453 0 19.320755 9.660377 19.320755 19.320755s-7.728302 19.320755-19.320755 19.320755l-115.924528 0 0 135.245283c0 9.660377-7.728302 19.320755-19.320755 19.320755-9.660377 0-19.320755-9.660377-19.320755-19.320755l0-135.245283-115.924528 0c-9.660377 0-19.320755-9.660377-19.320755-19.320755s9.660377-19.320755 19.320755-19.320755l115.924528 0 0-135.245283c0-9.660377 9.660377-19.320755 19.320755-19.320755C610.535849 483.018868 618.264151 492.679245 618.264151 502.339623L618.264151 502.339623z" p-id="1553"></path><path d="M1174.701887 442.445283C1060.709434 353.569811 741.916981 110.128302 641.449057 30.913208c-19.320755-15.456604-44.437736-15.456604-61.826415 0C475.290566 110.128302 148.769811 357.433962 38.641509 444.377358c-21.25283 17.388679-25.116981 46.369811-9.660377 65.690566 9.660377 11.592453 23.184906 21.25283 38.641509 23.184906 9.660377 1.932075 19.320755 0 27.049057-1.932075L604.739623 139.109434l525.524528 396.075472c7.728302 1.932075 15.456604 3.864151 23.184906 1.932075 13.524528-1.932075 27.049057-9.660377 34.777358-21.25283C1203.683019 492.679245 1197.886792 459.833962 1174.701887 442.445283L1174.701887 442.445283z" p-id="1554"></path></svg>