<?xml version="1.0" standalone="no"?><!DOCTYPE svg PUBLIC "-//W3C//DTD SVG 1.1//EN" "http://www.w3.org/Graphics/SVG/1.1/DTD/svg11.dtd"><svg t="1514254112873" class="icon" style="" viewBox="0 0 1024 1024" version="1.1" xmlns="http://www.w3.org/2000/svg" p-id="1443" xmlns:xlink="http://www.w3.org/1999/xlink" width="64" height="64"><defs><style type="text/css"></style></defs><path d="M834.17 266.878c8.737 8.737 16.227 20.596 22.468 35.575 6.241 14.98 9.362 28.71 9.362 41.193v539.25c0 12.482-4.369 23.093-13.107 31.83-8.738 8.738-19.348 13.107-31.83 13.107H191.937c-12.483 0-23.093-4.369-31.831-13.106-8.738-8.738-13.107-19.349-13.107-31.831V133.938c0-12.483 4.369-23.093 13.107-31.831S179.455 89 191.937 89h419.417c12.483 0 26.214 3.12 41.193 9.362 14.979 6.241 26.838 13.73 35.575 22.469L834.17 266.878zM626.332 152.66v176.006H802.34c-3.121-9.05-6.554-15.448-10.299-19.192L645.525 162.96c-3.744-3.745-10.142-7.178-19.192-10.299z m179.75 715.256V388.583H611.354c-12.482 0-23.093-4.369-31.83-13.106-8.738-8.738-13.107-19.349-13.107-31.831v-194.73h-359.5v719h599.166zM326.75 463.479c0-4.369 1.404-7.958 4.213-10.766 2.808-2.809 6.397-4.213 10.766-4.213h329.542c4.369 0 7.958 1.404 10.766 4.213 2.809 2.808 4.213 6.397 4.213 10.766v29.959c0 4.368-1.404 7.957-4.213 10.766-2.808 2.808-6.397 4.213-10.766 4.213H341.729c-4.369 0-7.958-1.405-10.766-4.213-2.809-2.809-4.213-6.398-4.213-10.766v-29.959z m344.52 104.854c4.37 0 7.959 1.405 10.767 4.213 2.809 2.809 4.213 6.398 4.213 10.767v29.958c0 4.369-1.404 7.958-4.213 10.766-2.808 2.809-6.397 4.213-10.766 4.213H341.729c-4.369 0-7.958-1.404-10.766-4.213-2.809-2.808-4.213-6.397-4.213-10.766v-29.958c0-4.37 1.404-7.958 4.213-10.767 2.808-2.808 6.397-4.213 10.766-4.213h329.542z m0 119.834c4.37 0 7.959 1.404 10.767 4.213 2.809 2.808 4.213 6.397 4.213 10.766v29.958c0 4.37-1.404 7.958-4.213 10.766-2.808 2.809-6.397 4.213-10.766 4.213H341.729c-4.369 0-7.958-1.404-10.766-4.213-2.809-2.808-4.213-6.397-4.213-10.766v-29.958c0-4.37 1.404-7.958 4.213-10.766 2.808-2.809 6.397-4.213 10.766-4.213h329.542z" fill="" p-id="1444"></path></svg>