<?xml version="1.0" standalone="no"?><!DOCTYPE svg PUBLIC "-//W3C//DTD SVG 1.1//EN" "http://www.w3.org/Graphics/SVG/1.1/DTD/svg11.dtd"><svg t="1514255286185" class="icon" style="" viewBox="0 0 1024 1024" version="1.1" xmlns="http://www.w3.org/2000/svg" p-id="1706" xmlns:xlink="http://www.w3.org/1999/xlink" width="64" height="64"><defs><style type="text/css"></style></defs><path d="M515.05 47.261c-257.014 0-465.395 208.393-465.395 465.41 0 257.017 208.381 465.422 465.395 465.422 257.017 0 465.393-208.405 465.393-465.422 0-257.017-208.376-465.41-465.393-465.41z m0 889.114c-234.014 0-423.704-189.678-423.704-423.704S281.036 88.966 515.05 88.966c234.012 0 423.701 189.678 423.701 423.705S749.062 936.375 515.05 936.375z" p-id="1707"></path><path d="M715.813 533.776v0.035c0 109.173-88.544 197.693-197.732 197.693-109.226 0-197.75-88.521-197.75-197.693v-0.035h-48.368c0 0.346-0.059 0.651-0.059 0.998 0 134.266 108.862 243.163 243.146 243.163 134.281 0 243.123-108.897 243.123-243.163 0-0.347-0.035-0.652-0.035-0.998h-42.325zM568.522 219.016H461.576c-128.717 0-233.048 104.329-233.048 233.063 0 12.86 1.303 25.404 3.335 37.759 2.936-0.076 5.813-0.458 8.785-0.458h35.284c-1.841-10.864-3.01-21.916-3.01-33.308 0-109.743 89.005-198.733 198.745-198.733h90.808c109.746 0 198.751 88.99 198.751 198.733 0 11.392-1.192 22.444-3.016 33.308h40.082c1.955-12.203 3.262-24.594 3.262-37.301 0.001-128.734-104.333-233.063-233.032-233.063z" p-id="1708"></path><path d="M519.078 291.646c-10.033 0-18.169 8.139-18.169 18.157v86.794h-96.853c-10.012 0-18.151 8.133-18.151 18.11 0 10.054 8.139 18.193 18.151 18.193h96.853v78.654c0 10.054 8.136 18.192 18.169 18.192 10.016 0 18.152-8.139 18.152-18.192V432.9h88.79c10.019 0 18.151-8.139 18.151-18.193 0-9.977-8.133-18.11-18.151-18.11h-88.79v-86.794c0.001-10.018-8.136-18.157-18.152-18.157z" p-id="1709"></path></svg>