<?xml version="1.0" standalone="no"?><!DOCTYPE svg PUBLIC "-//W3C//DTD SVG 1.1//EN" "http://www.w3.org/Graphics/SVG/1.1/DTD/svg11.dtd"><svg t="1514255817591" class="icon" style="" viewBox="0 0 1024 1024" version="1.1" xmlns="http://www.w3.org/2000/svg" p-id="3996" xmlns:xlink="http://www.w3.org/1999/xlink" width="64" height="64"><defs><style type="text/css"></style></defs><path d="M375.435695 209.848379l25.463951 0 0 14.110369c0 2.794649 0.841158 5.307889 2.036379 7.641027 1.214664 6.644327 6.721075 11.688203 13.638625 11.688203 4.724605 0 8.700149-2.425236 11.261485-5.968945 4.154623-3.110851 7.02295-7.80578 7.02295-13.361309l0-14.110369 19.757996 0c9.390881 0 16.997116-7.640004 16.997116-16.997116 0-9.356089-7.606235-16.997116-16.997116-16.997116l-19.757996 0 0-21.200858c0-9.385764-7.611352-16.997116-16.997116-16.997116-9.390881 0-16.968463 7.611352-16.968463 16.997116l0 21.200858-25.463951 0c-9.356089 0-16.962324 7.641027-16.962324 16.997116C358.469278 202.208375 366.075513 209.848379 375.435695 209.848379L375.435695 209.848379zM375.435695 209.848379" p-id="3997"></path><path d="M762.39484 818.703287c-47.612391-115.6643-145.040351-197.790762-260.349563-223.688595 69.64622-49.63956 116.889197-156.098197 116.889197-282.664801 0-80.503499-19.846-156.899446-55.895031-215.114312l-4.282536-6.901177L551.136346 87.526449c-87.86721-32.274054-188.590216-32.274054-276.392958 0l-7.625678 2.809999-4.27742 6.901177c-36.06438 58.18519-55.9288 134.590348-55.9288 215.114312 0 129.925095 49.717332 238.842737 122.425284 286.654672C221.971487 628.582205 131.082454 708.302875 85.602633 818.703287l-1.12359 3.406586c-4.383844 18.085914-11.961426 63.783699 12.536524 97.281627 9.662057 13.225209 28.360931 29.489638 62.509682 31.865755 31.461549 2.162246 120.019491 4.339842 264.505209 6.473435l1.060145 0 0.184195 0c143.178957-2.133593 231.735875-4.311189 263.276219-6.473435 34.085306-2.37714 52.769854-18.640546 62.432934-31.865755 24.511253-33.496905 16.905018-79.180364 12.549827-97.281627L762.39484 818.703287 762.39484 818.703287zM298.733778 129.019469c72.789817-24.817222 155.529239-24.817222 228.411153 0 26.075889 45.163619 40.818661 102.608959 43.549865 163.846672-140.587945-27.699875-262.556834-10.43056-315.54056 0.234337C257.851673 231.755318 272.608771 174.226067 298.733778 129.019469L298.733778 129.019469zM255.077489 341.29513c43.029002-9.235338 171.116239-30.727839 315.709405-0.277316-8.865925 131.09678-77.514421 236.985436-157.862377 236.985436C332.63489 578.008366 264.034489 472.270137 255.077489 341.29513L255.077489 341.29513zM712.970174 891.581108c-5.580089 7.611352-14.663978 11.751648-27.6702 12.670577-30.679743 2.104941-118.381178 4.234441-260.734326 6.353708l0.355087 23.559579-1.486864-23.559579c-142.359288-2.119267-230.055606-4.247744-260.656555-6.353708-13.083993-0.917906-22.167882-5.059226-27.733645-12.670577-10.172687-13.910824-9.390881-38.042431-5.15644-56.629765 51.034327-122.045637 165.060313-201.106274 290.737664-201.723328l3.406586 0.213871c1.025353 0 2.162246-0.073678 3.130294-0.086981 125.96797 0.490164 239.974513 79.549777 290.964838 201.578018C722.361055 853.538677 723.128535 877.66926 712.970174 891.581108L712.970174 891.581108zM712.970174 891.581108" p-id="3998"></path><path d="M941.965635 813.872259C904.443044 696.322006 821.887816 651.925866 767.246335 622.554932c-8.714476-4.694929-16.783245-9.020444-23.962761-13.317307-9.875928-5.78475-20.005636-10.571776-28.962635-14.785751-5.030573-2.381234-11.290137-5.326309-15.708773-7.78122C822.558082 402.531819 806.67023 238.72915 805.994847 232.596476 801.143353 138.396023 710.150966 104.615663 662.717653 99.905384l-15.616676-1.550309-3.095501 31.262004 15.645328 1.550309c4.476965 0.447185 110.264313 11.980869 115.047246 103.897302 0.063445 0.738827 3.130294 34.839483-4.845355 88.207971-35.957957-14.343683-89.9875-17.751293-97.346095-18.120706l-1.598404 31.388894c26.756387 1.36509 71.943542 7.40669 93.238544 18.10024-12.885472 61.406558-40.007179 140.29528-97.072873 222.506676l-1.716084 3.202948c-8.529257 21.736047 14.912641 32.769334 35.588543 42.509163 8.159844 3.865028 17.424858 8.204869 26.352181 13.434987 7.456832 4.437056 15.922644 9.006118 25.065885 13.910824 53.202713 28.598338 126.031415 67.759243 159.170163 170.902368 6.226818 39.60809 0.242524 52.216245-2.610454 55.80805-1.350764 1.700735-3.52836 3.480264-9.141194 3.862981-20.894889 1.394766-48.750307 2.148943-48.842405 2.148943l0.859577 31.417547c0 0 28.622898-0.782829 50.102095-2.212388 13.404288-0.917906 24.049742-6.167466 31.596625-15.631002C945.858292 880.999099 948.716386 855.487052 941.965635 813.872259L941.965635 813.872259zM941.965635 813.872259" p-id="3999"></path></svg>