<?xml version="1.0" standalone="no"?><!DOCTYPE svg PUBLIC "-//W3C//DTD SVG 1.1//EN" "http://www.w3.org/Graphics/SVG/1.1/DTD/svg11.dtd"><svg t="1514255907085" class="icon" style="" viewBox="0 0 1024 1024" version="1.1" xmlns="http://www.w3.org/2000/svg" p-id="4474" xmlns:xlink="http://www.w3.org/1999/xlink" width="64" height="64"><defs><style type="text/css"></style></defs><path d="M640.896 498.21184c49.08544-38.31296 80.79872-97.66912 80.79872-164.35712 0-115.26656-94.3872-209.05472-210.44224-209.05472-116.06016 0-210.44736 93.78816-210.44736 209.0496 0 66.69312 31.70816 126.04928 80.79872 164.36224-129.37728 51.3536-221.08672 176.88064-221.08672 323.44064v69.66784c0 19.26656 15.6928 34.84672 35.06176 34.84672h631.33696c19.3792 0 35.06688-15.58016 35.06688-34.84672v-69.66784c0-146.61632-91.71456-272.08704-221.08672-323.44064zM359.00928 333.57824c0-83.41504 68.27008-151.22944 152.23808-151.22944 83.968 0 152.2432 67.80928 152.2432 151.22944 0 83.39456-68.28032 151.22944-152.2432 151.22944-83.968 0-152.23808-67.80416-152.23808-151.22944z m450.2272 535.424H213.23264v-37.00736c0-163.23072 133.6832-296.04864 298.04544-296.04864 164.3008 0 297.9584 132.8128 297.9584 296.04864v37.00736zM239.43168 436.92032l6.84544-1.6384c14.70976-4.88448 25.1904-17.7152 25.1904-32.768 0-14.55104-9.79456-26.99264-23.68512-32.2304-37.55008-16.9472-61.77792-54.144-61.77792-95.1296 0-46.4384 40.35584-85.57056 82.59584-99.13344a208.12288 208.12288 0 0 1 32.82944-62.21824 236.2368 236.2368 0 0 1 7.8336-12.032c-2.8416-0.13824-5.53984-0.8448-8.45824-0.8448-96.68608 0-175.38048 78.15168-175.38048 174.2336 0 44.09344 16.91648 85.43744 45.62432 116.87424-91.30496 46.98624-150.85056 140.96384-150.85056 247.28576v53.888c0 19.26656 15.6928 34.84672 35.06176 34.84672h62.84288c0-23.87456 2.4576-39.18336 7.0656-61.696h-44.3904v-27.04384c0-96.30208 65.16224-178.95424 158.64832-202.3936z m611.6352-44.88704c28.70784-31.4368 45.6192-72.7808 45.6192-116.87936 0-96.08192-78.6688-174.2592-175.37536-174.2592-2.9184 0-5.62176 0.71168-8.45824 0.8448a235.58144 235.58144 0 0 1 7.8336 12.032 207.50848 207.50848 0 0 1 32.79872 62.21824c42.24 13.56288 88.44288 52.69504 88.44288 99.13856 0 40.9856-24.25856 78.208-61.78304 95.1296-13.89056 5.23264-23.68512 17.67936-23.68512 32.22528 0 15.06304 10.50624 27.88864 25.18528 32.768l6.85056 1.6384c93.5168 23.47008 158.65344 106.09664 158.65344 202.42944v27.0336h-50.26304c4.63872 22.52288 7.0656 37.82656 7.0656 61.70112h62.84288c19.4048 0 35.06688-15.57504 35.06688-34.8416v-53.89312c0.0512-106.32192-59.48928-200.2944-150.79936-247.28576z" p-id="4475"></path></svg>