<?xml version="1.0" standalone="no"?><!DOCTYPE svg PUBLIC "-//W3C//DTD SVG 1.1//EN" "http://www.w3.org/Graphics/SVG/1.1/DTD/svg11.dtd"><svg t="1514255419850" class="icon" style="" viewBox="0 0 1024 1024" version="1.1" xmlns="http://www.w3.org/2000/svg" p-id="2387" xmlns:xlink="http://www.w3.org/1999/xlink" width="64" height="64"><defs><style type="text/css"></style></defs><path d="M1001.664 488 1001.664 464l-0.64 0 0.672-0.512L783.6 184.4c-53.408-61.84-101.568-63.152-116.688-61.744l-287.68 0c-95.984 0-141.744 63.792-150.56 77.68L23.312 462.944 24.656 464 22.656 464l0 64 0.288 0 0 280c0 61.744 50.256 112 112 112l755.248 0c61.744 0 112-50.256 112-112l0-320L1001.664 488zM280.16 238.368l2.464-3.632c1.152-1.968 29.44-48.096 96.592-48.096l289.504 0 1.568 0.88 3.888-1.232c4.736 0.112 28.688 2.512 59.984 38.736L920.864 464 653.6 464l0 27.2L653.6 528l0 80L369.6 608l0-116.8-0.256 0L369.344 464 103.728 464 280.16 238.368zM890.192 856 134.944 856c-26.464 0-48-21.536-48-48L86.944 528 305.6 528l0 80c0 35.28 28.72 64 64 64l284 0c35.296 0 64-28.72 64-64l0-80 220.592 0 0 280C938.192 834.464 916.656 856 890.192 856z" p-id="2388"></path></svg>